<?xml version="1.0" encoding="utf-8"?>
<!-- Svg Vector Icons : http://www.onlinewebfonts.com/icon -->
<!DOCTYPE svg PUBLIC "-//W3C//DTD SVG 1.1//EN" "http://www.w3.org/Graphics/SVG/1.1/DTD/svg11.dtd">
<svg version="1.1" xmlns="http://www.w3.org/2000/svg" xmlns:xlink="http://www.w3.org/1999/xlink" x="0px" y="0px" viewBox="0 0 1000 1000" enable-background="new 0 0 1000 1000" xml:space="preserve">
<metadata> Svg Vector Icons : http://www.onlinewebfonts.com/icon </metadata>
<g><g transform="translate(0.000000,511.000000) scale(0.100000,-0.100000)"><path d="M1573.7,4932.2c-507.6-171.9-862.4-573.1-952.4-1067.1c-21.8-111.9-30-1307.2-30-3747v-3583.2h2401.6h2401.6v597.7v600.4l895.1,8.2c1001.6,13.7,1048,19.1,1451.9,218.3c185.6,90.1,278.4,161,480.3,360.3c215.6,212.9,267.5,283.8,373.9,507.6c199.2,414.8,210.1,504.9,210.1,1825.7V1802l76.4,13.6c316.6,65.5,458.5,136.5,665.9,335.7c103.7,98.3,191,215.6,248.3,330.2l87.3,180.1l8.2,663.2l8.2,660.4h-245.6h-248.3v412.1v412.1l-92.8,92.8c-81.9,81.9-109.2,92.8-240.1,92.8c-289.3,0-349.3-109.2-349.3-641.3v-368.4h-327.5h-327.5v368.4c0,532.2-60,641.3-349.3,641.3c-131,0-158.3-10.9-240.2-92.8l-92.8-92.8v-412.1v-412.1h-248.3h-245.6l8.2-646.8c10.9-777.8,30-854.2,300.2-1143.5c193.8-204.7,414.8-324.8,685-371.2l182.9-30V672.2c0-1222.6-8.2-1307.2-155.6-1580.1c-150.1-272.9-510.3-532.2-829.6-592.2c-79.2-16.4-488.5-27.3-914.2-27.3h-775.1v2641.7c0,2909.2,2.7,2824.6-171.9,3154.8c-111.9,212.9-371.1,472.1-567.6,570.4c-302.9,150.1-343.9,155.6-1675.6,155.6C1781.1,4992.3,1745.6,4992.3,1573.7,4932.2z M3800.6,4124.4c450.3-204.7,453-917,2.7-1157.1c-109.2-54.6-150.1-60-742.3-60c-594.9,0-633.1,2.7-742.3,60c-453,242.9-442.1,966.1,19.1,1165.3c76.4,32.8,223.8,40.9,723.2,40.9C3615,4176.3,3702.3,4168.1,3800.6,4124.4z M4065.3,1605.5c-10.9-19.1-251.1-363-532.2-764.1L3022.8,110l622.2-5.5l619.5-8.2L3241.1-1025.3c-564.9-619.5-1028.9-1121.7-1034.3-1116.2c-5.5,2.7,163.7,420.3,376.6,927.9c210.1,504.9,382.1,930.6,382.1,941.5c0,10.9-196.5,30-439.4,40.9c-390.2,16.4-436.7,24.6-420.3,65.5c10.9,24.6,139.2,401.2,286.6,835.1c147.4,436.7,283.8,832.4,300.2,881.5l32.8,87.3h682.3C3945.2,1638.3,4084.4,1630.1,4065.3,1605.5z"/><path d="M146.4-3787.1c-38.2-43.7-46.4-117.3-46.4-466.7c0-234.7,13.6-439.4,27.3-469.4c27.3-51.9,90.1-51.9,2933.7-51.9s2906.4,0,2933.7,51.9c13.6,30,27.3,237.4,27.3,474.8c0,371.2-5.5,425.8-49.1,463.9c-46.4,43.7-289.3,46.4-2917.4,46.4C315.6-3737.9,187.3-3740.7,146.4-3787.1z"/></g></g>
</svg>