<svg height='300px' width='300px'  fill="#000000" xmlns="http://www.w3.org/2000/svg" xmlns:xlink="http://www.w3.org/1999/xlink" xml:space="preserve" version="1.1" style="shape-rendering:geometricPrecision;text-rendering:geometricPrecision;image-rendering:optimizeQuality;" viewBox="0 0 271 274" x="0px" y="0px" fill-rule="evenodd" clip-rule="evenodd"><defs><style type="text/css">

    .fil0 {fill:#000000}

  </style></defs><g><path class="fil0" d="M248 133l0 141 -226 0 0 -141 -5 5c-10,9 -23,-6 -14,-15l132 -123 133 123c9,9 -4,24 -14,15l-6 -5zm-134 121l43 0 0 -66c0,-28 -43,-28 -43,0l0 66zm114 0l0 -140 -93 -86 -92 86 0 140 51 0 0 -66c0,-54 83,-54 83,0l0 66 51 0z"></path></g></svg>
