<svg height='300px' width='300px'  fill="#000000" xmlns="http://www.w3.org/2000/svg" xmlns:xlink="http://www.w3.org/1999/xlink" xml:space="preserve" version="1.1" style="shape-rendering:geometricPrecision;text-rendering:geometricPrecision;image-rendering:optimizeQuality;" viewBox="0 0 256 187" x="0px" y="0px" fill-rule="evenodd" clip-rule="evenodd"><defs><style type="text/css">

    .fil0 {fill:#000000}
</style></defs><g><g><path class="fil0" d="M0 126c-1,20 1,41 8,61l29 -18c-4,-14 -5,-29 -4,-43l-33 0z"></path><path class="fil0" d="M22 61c-10,16 -17,34 -20,52l33 0c3,-12 8,-24 15,-35l-28 -17z"></path><path class="fil0" d="M66 17c-14,8 -27,20 -37,34l28 17c8,-8 16,-15 26,-21l-17 -30z"></path><path class="fil0" d="M122 0c-15,1 -31,5 -45,11l16 31c10,-4 19,-6 29,-7l0 -35z"></path><path class="fil0" d="M180 11c-15,-6 -30,-10 -46,-11l0 35c10,1 20,3 29,7l17 -31z"></path><path class="fil0" d="M228 51c-11,-14 -24,-26 -38,-34l-16 30c9,6 18,13 25,21l29 -17z"></path><path class="fil0" d="M254 113c-3,-18 -9,-36 -20,-52l-28 17c7,11 12,23 15,35l33 0z"></path><path class="fil0" d="M248 187c7,-20 10,-41 8,-61l-33 0c2,14 1,29 -4,43l29 18z"></path></g><path class="fil0" d="M171 69c-12,15 -57,61 -62,70 -5,9 -2,20 7,25 9,5 20,2 25,-7 5,-8 23,-70 30,-88zm-41 70c-12,-7 -23,12 -11,19 13,8 24,-12 11,-19z"></path></g></svg>
