<svg xmlns="http://www.w3.org/2000/svg" xmlns:xlink="http://www.w3.org/1999/xlink" viewBox="0 0 50 50" version="1.1">
<g id="surface1">
<path style=" " d="M 16.71875 5 C 13.515625 5.113281 8.851563 6.046875 2.59375 8.8125 C 2.226563 8.925781 1.957031 9.246094 1.902344 9.625 C 1.847656 10.007813 2.019531 10.386719 2.339844 10.601563 C 2.660156 10.8125 3.074219 10.824219 3.40625 10.625 C 9.476563 7.941406 13.890625 7.101563 16.78125 7 C 18.226563 6.949219 19.277344 7.082031 19.96875 7.25 C 20.316406 7.335938 20.574219 7.429688 20.71875 7.5 C 20.738281 7.507813 20.734375 7.519531 20.75 7.53125 C 20.769531 7.570313 20.796875 7.601563 20.8125 7.65625 C 20.863281 7.839844 20.90625 8.101563 20.96875 8.40625 C 21.09375 9.015625 21.230469 9.804688 21.34375 10.5625 C 21.535156 11.851563 21.644531 12.726563 21.6875 13.0625 C 21.078125 13.082031 20.484375 13.132813 19.875 13.15625 C 19.335938 13.179688 18.792969 13.191406 18.28125 13.21875 C 18.15625 13.222656 18.027344 13.246094 17.90625 13.25 C 17.847656 13.253906 17.808594 13.246094 17.75 13.25 C 17.171875 13.277344 16.625 13.304688 16.125 13.34375 C 15.816406 13.367188 15.578125 13.40625 15.3125 13.4375 C 15.105469 13.460938 14.863281 13.472656 14.6875 13.5 C 14.519531 13.523438 14.386719 13.570313 14.25 13.59375 C 14.058594 13.628906 13.871094 13.652344 13.625 13.78125 C 13.34375 13.929688 13.089844 14.117188 12.84375 14.3125 C 12.589844 14.511719 12.351563 14.726563 12.125 14.96875 C 11.890625 15.21875 11.675781 15.496094 11.46875 15.78125 C 11.269531 16.054688 11.058594 16.328125 10.875 16.625 C 10.8125 16.726563 10.75 16.835938 10.6875 16.9375 C 10.578125 17.121094 10.480469 17.3125 10.375 17.5 C 10.339844 17.558594 10.316406 17.625 10.28125 17.6875 C 10.105469 18.007813 9.914063 18.332031 9.75 18.65625 C 9.746094 18.664063 9.753906 18.679688 9.75 18.6875 C 9.5625 19.0625 9.390625 19.417969 9.21875 19.78125 C 9.183594 19.851563 9.160156 19.929688 9.125 20 C 8.742188 19.320313 8.117188 19 7.875 19 C 7.355469 19 5.5625 19.558594 5.40625 19.6875 C 5.25 19.816406 5 21.003906 5 21.34375 C 5 21.683594 5.695313 21.96875 6.09375 21.96875 C 6.347656 21.96875 7.269531 21.992188 8.125 22 C 8.0625 22.085938 8.035156 22.167969 7.90625 22.3125 C 7.699219 22.535156 7.449219 22.78125 7.1875 23.03125 C 7.164063 23.054688 7.148438 23.070313 7.125 23.09375 C 6.820313 23.386719 6.488281 23.703125 6.15625 24.0625 C 6.144531 24.074219 6.136719 24.082031 6.125 24.09375 C 5.78125 24.46875 5.457031 24.863281 5.15625 25.3125 C 5.046875 25.476563 4.910156 25.726563 4.78125 26.03125 C 4.765625 26.070313 4.734375 26.085938 4.71875 26.125 C 4.671875 26.242188 4.640625 26.363281 4.59375 26.5 C 4.574219 26.554688 4.550781 26.597656 4.53125 26.65625 C 4.484375 26.800781 4.449219 26.929688 4.40625 27.09375 C 4.355469 27.285156 4.324219 27.5 4.28125 27.71875 C 4.261719 27.816406 4.238281 27.925781 4.21875 28.03125 C 4.21875 28.042969 4.21875 28.050781 4.21875 28.0625 C 4.183594 28.277344 4.152344 28.503906 4.125 28.75 C 4.097656 29.007813 4.082031 29.273438 4.0625 29.5625 C 4.058594 29.640625 4.035156 29.703125 4.03125 29.78125 C 4.03125 29.8125 4.03125 29.839844 4.03125 29.875 C 4.015625 30.226563 4 30.601563 4 31 L 4 43 C 4 44.101563 4.898438 45 6 45 L 10 45 C 11.101563 45 12 44.101563 12 43 L 12 41.5 C 12.332031 41.527344 12.734375 41.566406 13.09375 41.59375 C 13.445313 41.621094 13.777344 41.628906 14.15625 41.65625 C 14.308594 41.667969 14.4375 41.675781 14.59375 41.6875 C 15.042969 41.71875 15.484375 41.722656 15.96875 41.75 C 16.8125 41.796875 17.707031 41.839844 18.65625 41.875 C 19.609375 41.910156 20.597656 41.949219 21.65625 41.96875 C 22.726563 41.988281 23.820313 42 25 42 C 26.183594 42 27.273438 41.988281 28.34375 41.96875 C 29.402344 41.949219 30.390625 41.910156 31.34375 41.875 C 32.292969 41.839844 33.1875 41.796875 34.03125 41.75 C 34.667969 41.714844 35.265625 41.695313 35.84375 41.65625 C 36.214844 41.628906 36.558594 41.621094 36.90625 41.59375 C 37.265625 41.566406 37.667969 41.527344 38 41.5 L 38 43 C 38 44.101563 38.898438 45 40 45 L 44 45 C 45.101563 45 46 44.101563 46 43 L 46 31 C 46 30.570313 45.988281 30.160156 45.96875 29.78125 C 45.953125 29.464844 45.933594 29.183594 45.90625 28.90625 C 45.902344 28.847656 45.882813 28.804688 45.875 28.75 C 45.847656 28.507813 45.816406 28.277344 45.78125 28.0625 C 45.769531 27.984375 45.761719 27.917969 45.75 27.84375 C 45.742188 27.808594 45.726563 27.785156 45.71875 27.75 C 45.675781 27.53125 45.644531 27.316406 45.59375 27.125 C 45.550781 26.957031 45.515625 26.800781 45.46875 26.65625 C 45.449219 26.597656 45.425781 26.554688 45.40625 26.5 C 45.359375 26.363281 45.328125 26.242188 45.28125 26.125 C 45.261719 26.074219 45.238281 26.046875 45.21875 26 C 45.09375 25.707031 44.949219 25.472656 44.84375 25.3125 C 44.542969 24.863281 44.21875 24.46875 43.875 24.09375 C 43.863281 24.082031 43.855469 24.074219 43.84375 24.0625 C 43.511719 23.703125 43.179688 23.386719 42.875 23.09375 C 42.851563 23.070313 42.835938 23.054688 42.8125 23.03125 C 42.550781 22.78125 42.300781 22.535156 42.09375 22.3125 C 41.964844 22.167969 41.9375 22.085938 41.875 22 C 42.730469 21.992188 43.652344 21.96875 43.90625 21.96875 C 44.304688 21.96875 45 21.683594 45 21.34375 C 45 21.003906 44.75 19.816406 44.59375 19.6875 C 44.4375 19.558594 42.644531 19 42.125 19 C 41.882813 19 41.257813 19.320313 40.875 20 C 40.839844 19.929688 40.816406 19.851563 40.78125 19.78125 C 40.609375 19.417969 40.4375 19.0625 40.25 18.6875 C 40.246094 18.679688 40.253906 18.664063 40.25 18.65625 C 40.085938 18.332031 39.894531 18.007813 39.71875 17.6875 C 39.683594 17.625 39.660156 17.558594 39.625 17.5 C 39.472656 17.226563 39.320313 16.953125 39.15625 16.6875 C 39.144531 16.667969 39.136719 16.644531 39.125 16.625 C 38.941406 16.328125 38.730469 16.054688 38.53125 15.78125 C 38.324219 15.496094 38.109375 15.21875 37.875 14.96875 C 37.648438 14.726563 37.410156 14.511719 37.15625 14.3125 C 36.910156 14.117188 36.65625 13.929688 36.375 13.78125 C 36.128906 13.652344 35.941406 13.628906 35.75 13.59375 C 35.613281 13.570313 35.480469 13.523438 35.3125 13.5 C 35.136719 13.472656 34.894531 13.460938 34.6875 13.4375 C 34.421875 13.40625 34.183594 13.367188 33.875 13.34375 C 33.375 13.304688 32.828125 13.277344 32.25 13.25 C 32.191406 13.246094 32.152344 13.253906 32.09375 13.25 C 31.457031 13.222656 30.78125 13.183594 30.125 13.15625 C 29.519531 13.132813 28.917969 13.082031 28.3125 13.0625 C 28.355469 12.726563 28.464844 11.851563 28.65625 10.5625 C 28.769531 9.804688 28.90625 9.015625 29.03125 8.40625 C 29.09375 8.101563 29.136719 7.839844 29.1875 7.65625 C 29.203125 7.601563 29.230469 7.570313 29.25 7.53125 C 29.265625 7.519531 29.261719 7.507813 29.28125 7.5 C 29.425781 7.429688 29.683594 7.335938 30.03125 7.25 C 30.722656 7.082031 31.773438 6.949219 33.21875 7 C 36.109375 7.101563 40.523438 7.941406 46.59375 10.625 C 46.925781 10.824219 47.339844 10.8125 47.660156 10.601563 C 47.980469 10.386719 48.152344 10.007813 48.097656 9.625 C 48.042969 9.246094 47.773438 8.925781 47.40625 8.8125 C 41.148438 6.046875 36.484375 5.113281 33.28125 5 C 31.679688 4.945313 30.441406 5.089844 29.53125 5.3125 C 29.078125 5.421875 28.714844 5.570313 28.40625 5.71875 C 28.097656 5.867188 27.859375 5.945313 27.59375 6.34375 C 27.386719 6.652344 27.355469 6.863281 27.28125 7.125 C 27.207031 7.386719 27.128906 7.664063 27.0625 8 C 26.925781 8.667969 26.804688 9.472656 26.6875 10.25 C 26.472656 11.675781 26.339844 12.816406 26.3125 13.03125 C 26.078125 13.027344 25.257813 13 25.21875 13 C 25.144531 13 25.042969 13 24.96875 13 C 24.589844 13.007813 24.109375 13.023438 23.6875 13.03125 C 23.660156 12.816406 23.527344 11.675781 23.3125 10.25 C 23.195313 9.472656 23.074219 8.667969 22.9375 8 C 22.871094 7.664063 22.792969 7.386719 22.71875 7.125 C 22.644531 6.863281 22.613281 6.652344 22.40625 6.34375 C 22.140625 5.945313 21.902344 5.867188 21.59375 5.71875 C 21.285156 5.570313 20.921875 5.421875 20.46875 5.3125 C 19.558594 5.089844 18.320313 4.945313 16.71875 5 Z M 24.96875 15 C 25.125 15.003906 25.28125 14.996094 25.4375 15 C 25.824219 15.007813 27.683594 15.0625 30.03125 15.15625 C 31.203125 15.203125 32.378906 15.242188 33.375 15.3125 C 33.5 15.320313 33.664063 15.335938 33.78125 15.34375 C 34.269531 15.386719 34.6875 15.453125 35 15.5 C 35.21875 15.53125 35.414063 15.585938 35.46875 15.59375 C 35.488281 15.605469 35.511719 15.613281 35.53125 15.625 C 35.882813 15.832031 36.269531 16.191406 36.65625 16.65625 C 36.683594 16.691406 36.722656 16.714844 36.75 16.75 C 36.890625 16.925781 37.015625 17.113281 37.15625 17.3125 C 37.425781 17.710938 37.6875 18.171875 37.9375 18.625 C 38.1875 19.078125 38.429688 19.535156 38.65625 20 L 11.34375 20 C 11.570313 19.535156 11.816406 19.078125 12.0625 18.625 C 12.28125 18.226563 12.484375 17.828125 12.71875 17.46875 C 12.726563 17.457031 12.742188 17.449219 12.75 17.4375 C 12.773438 17.398438 12.789063 17.347656 12.8125 17.3125 C 13.191406 16.769531 13.597656 16.332031 13.96875 16 C 14.152344 15.835938 14.328125 15.691406 14.5 15.59375 C 14.496094 15.59375 14.527344 15.597656 14.53125 15.59375 C 14.585938 15.585938 14.78125 15.53125 15 15.5 C 15.320313 15.453125 15.746094 15.386719 16.25 15.34375 C 16.304688 15.339844 16.382813 15.347656 16.4375 15.34375 C 17.460938 15.265625 18.730469 15.207031 19.96875 15.15625 C 20.769531 15.125 20.832031 15.117188 21.53125 15.09375 C 22.667969 15.058594 23.832031 15.019531 24.96875 15 Z M 7.34375 25.75 C 7.386719 25.746094 7.421875 25.742188 7.46875 25.75 C 12.671875 26.589844 12.707031 26.792969 14 27.875 C 14 27.875 13.445313 28.179688 12.46875 28.75 C 11.910156 29.078125 11.179688 29 10.65625 28.96875 C 10.132813 28.9375 9.078125 28.855469 7.6875 28.71875 C 6.316406 28.585938 6.46875 28.011719 6.5625 27.375 C 6.582031 27.234375 6.628906 26.960938 6.6875 26.6875 C 6.730469 26.597656 6.78125 26.484375 6.8125 26.4375 C 6.96875 26.203125 7.152344 25.976563 7.34375 25.75 Z M 42.53125 25.75 C 42.578125 25.742188 42.613281 25.746094 42.65625 25.75 C 42.847656 25.976563 43.03125 26.203125 43.1875 26.4375 C 43.21875 26.484375 43.269531 26.597656 43.3125 26.6875 C 43.371094 26.960938 43.417969 27.234375 43.4375 27.375 C 43.53125 28.011719 43.683594 28.585938 42.3125 28.71875 C 40.921875 28.855469 39.867188 28.9375 39.34375 28.96875 C 38.820313 29 38.089844 29.078125 37.53125 28.75 C 36.554688 28.179688 36 27.875 36 27.875 C 37.292969 26.792969 37.328125 26.589844 42.53125 25.75 Z M 23.6875 27.875 C 24.492188 27.859375 25 27.875 25 27.875 C 25 27.875 33.28125 27.839844 35 29 C 35 29 27.804688 29.226563 26.84375 29.625 C 25.882813 30.023438 25 31 25 31 C 25 31 24.117188 30.023438 23.15625 29.625 C 22.195313 29.226563 15 29 15 29 C 16.289063 28.128906 21.277344 27.921875 23.6875 27.875 Z M 18.40625 35 L 31.59375 35 C 32.746094 35 33.835938 35.507813 34.59375 36.375 L 37.375 39.53125 C 34.3125 39.785156 30.28125 40 25 40 C 19.71875 40 15.6875 39.785156 12.625 39.53125 L 15.40625 36.375 C 16.167969 35.507813 17.253906 35 18.40625 35 Z "></path>
</g>
</svg>
